<?xml version="1.0" encoding="UTF-8" standalone="no"?>
<svg width="144px" height="144px" viewBox="0 0 144 144" version="1.1" xmlns="http://www.w3.org/2000/svg" xmlns:xlink="http://www.w3.org/1999/xlink">
    <!-- Generator: sketchtool 41 (35326) - http://www.bohemiancoding.com/sketch -->
    <title>66C94408-318B-4E80-AA53-21AA833B313B</title>
    <desc>Created with sketchtool.</desc>
    <defs></defs>
    <g id="Page-2" stroke="none" stroke-width="1" fill="none" fill-rule="evenodd">
        <g id="Front-page" transform="translate(-69.000000, -194.000000)">
            <g id="Logo" transform="translate(69.000000, 194.000000)">
                <circle id="Oval-2" fill="#FFFFFF" cx="71.5" cy="74.5" r="48.5"></circle>
                <path d="M100.217228,100.038711 C98.6825562,101.573382 96.6324882,102.41702 94.449972,102.41702 C92.2588179,102.41702 90.2087499,101.556107 88.6827161,100.024314 C88.6740782,100.015676 88.6769575,100.004159 88.6711989,99.9984004 C88.6683196,99.9926418 88.662561,99.9955211 88.6596817,99.9926418 L79.204031,90.162681 C78.2884108,89.2067504 78.3200832,87.6893546 79.2760138,86.7650964 C80.2233064,85.8581141 81.7550988,85.8753899 82.670719,86.845717 L92.0946973,96.6440054 C93.3328001,97.8936255 95.5700232,97.879229 96.8196433,96.6267296 C97.4473326,96.0019195 97.7986083,95.1554027 97.7986083,94.2628169 C97.7986083,93.3702311 97.4473326,92.5265936 96.8196433,91.8989043 C96.8138847,91.8931456 96.816764,91.8845077 96.8110054,91.8787491 C96.8052467,91.8729905 96.7966088,91.8729905 96.7908502,91.8672319 L80.7127889,75.233464 L74.329361,81.6946333 C74.3236023,81.7003919 74.3120851,81.6975126 74.3063265,81.7061505 C74.2948092,81.7147885 74.3005679,81.7320643 74.2890506,81.7407022 C73.8197233,82.1812365 73.2265856,82.4144605 72.6219307,82.4144605 C72.0115172,82.4144605 71.4011037,82.1812365 70.9317764,81.7119091 C70.9231384,81.7003919 70.9260178,81.6831161 70.9173798,81.6744781 C70.9116212,81.6658402 70.900104,81.6715988 70.8943454,81.6629609 L57.7157482,67.9574502 L57.7071103,94.2628169 C57.7071103,96.4395745 56.8605935,98.4723666 55.3288011,100.024314 C53.7710949,101.573382 51.7267856,102.41702 49.5529073,102.41702 C47.3847877,102.41702 45.3433576,101.573382 43.800048,100.038711 C42.2423418,98.4723666 41.3987043,96.4222986 41.3987043,94.2628169 L41.3987043,50.1892346 C41.3987043,49.4924418 41.7067904,48.8906662 42.1761177,48.450132 C42.1991522,48.4299768 42.1905143,48.3925458 42.2106694,48.3723906 C43.1579621,47.4654083 44.6926338,47.4654083 45.608254,48.450132 L52.9159402,56.0486283 L52.9188195,45.5074782 C52.9188195,45.5017196 52.9216988,45.4988403 52.9216988,45.495961 C52.9245781,45.1763577 53.1549228,44.9200992 53.2816124,44.6235304 C53.4054227,44.3413581 53.4255779,44.0073582 53.641526,43.7942894 C53.6444053,43.7942894 53.6444053,43.7885308 53.6444053,43.7856514 C53.7394225,43.6963929 53.8776294,43.725186 53.9812845,43.6532032 C54.3757498,43.3681516 54.7961289,43.0974966 55.3201632,43.0974966 C55.3345597,43.0974966 55.3403183,43.1118931 55.3547149,43.1118931 C55.4007838,43.1118931 55.4324562,43.1579621 55.4785252,43.1637207 C56.0774214,43.2097897 56.633128,43.4199792 57.0275934,43.8230825 C57.0362313,43.8317204 57.0448692,43.8259618 57.0506278,43.8345997 L80.7588579,68.3547948 L96.8138847,52.112613 C98.1210909,50.7967688 98.1210909,48.6689594 96.8138847,47.3559946 C95.5066784,46.0718228 93.3788691,46.0574262 92.0889387,47.3703911 L82.7110294,57.7646965 C82.2330641,58.2944893 81.5852195,58.5622651 80.9258578,58.5622651 C80.3557546,58.5622651 79.7770135,58.3578341 79.3134448,57.9345757 C78.3287211,57.0419899 78.2509798,55.5245941 79.1406862,54.5398704 L88.6049748,44.0534272 C88.6193714,44.033272 88.6452851,44.0419099 88.662561,44.0246341 C88.6798368,44.0044789 88.6711989,43.9756858 88.6884748,43.95841 C91.8672319,40.7796529 97.0384708,40.7969287 100.217228,43.95841 C103.387347,47.1515636 103.387347,52.3170439 100.225866,55.4929217 L84.0988563,71.8099656 L100.2489,88.5185955 C100.257538,88.5301128 100.254659,88.5473886 100.263297,88.5560266 C101.766296,90.0964569 102.604175,92.1148524 102.604175,94.2628169 C102.604175,96.4395745 101.757658,98.4896425 100.217228,100.038711 L100.217228,100.038711 Z M72,-4.54747351e-13 C32.2367432,-4.54747351e-13 -2.84217094e-14,32.2338639 -2.84217094e-14,72 C-2.84217094e-14,111.763257 32.2367432,144 72,144 C111.766136,144 144.002879,111.763257 144.002879,72 C144.002879,32.2338639 111.766136,-4.54747351e-13 72,-4.54747351e-13 L72,-4.54747351e-13 Z M46.204271,94.2628169 C46.204271,95.1554027 46.5555467,96.0019195 47.1976326,96.6411261 C48.4645285,97.879229 50.6643206,97.879229 51.9312165,96.6267296 C52.5502679,96.0019195 52.9015436,95.1554027 52.9015436,94.2628169 L52.9101816,62.9618492 L46.204271,55.9852835 L46.204271,94.2628169 Z M57.7186275,61.0442294 L72.6449652,76.566584 L77.3756698,71.7811725 L57.7215068,51.4532512 L57.7186275,61.0442294 Z" id="Page-1" fill="#0094E0"></path>
            </g>
        </g>
    </g>
</svg>